<svg id="a" data-name="Layer 1" xmlns="http://www.w3.org/2000/svg" viewBox="0 0 226.39 206.94" width="226.39" height="206.94">
  <defs>
    <clipPath id="b">
      <rect x="4.58" y="60.9" width="215.84" height="140.69" fill="#fff"/>
    </clipPath>
    <clipPath id="c">
      <rect x="90.24" y="6.89" width="132.18" height="81.01" fill="#fff"/>
    </clipPath>
  </defs>

  <g clip-path="url(#b)">
    <path d="M101.76,187.79l5.39.03M123.36,198.61c-2.26,1.72-5.08,2.74-8.14,2.74-7.44,0-13.47-6.03-13.47-13.47v-.07M134.07,187.87c0,7.44-6.03,13.47-13.46,13.47s-13.47-6.03-13.47-13.47v-.1M123.3,166.22v-21.62M123.3,198.65v-29.97M134.07,155.37v32.44M74.87,155.47h5.36M96.44,166.18v-21.59M96.44,142.26v-.27h10.73v26.95h-10.73v-.33M155.54,144.66v-2.66h10.77v.27M166.31,144.59v24.35h-10.77v-2.79M187.85,155.44v13.51h-10.77v-24.25M166.28,144.71c2.26-1.7,5.06-2.71,8.11-2.71,7.44,0,13.46,6.03,13.46,13.47v.03M166.27,142.27c.88-.18,1.8-.28,2.74-.28,3.05,0,5.87,1.02,8.13,2.74M161.02,155.47c0,7.44-6.03,13.47-13.46,13.47s-13.47-6.03-13.47-13.47,6.03-13.47,13.47-13.47,13.46,6.03,13.46,13.47ZM131.45,147.35c2.46-3.25,6.36-5.35,10.75-5.35,7.44,0,13.46,6.03,13.46,13.47s-6.03,13.47-13.46,13.47c-3.08,0-5.93-1.04-8.2-2.78M123.33,168.7c-.87.18-1.78.27-2.71.27-7.44,0-13.47-6.03-13.47-13.47s6.03-13.47,13.47-13.47,13.45,6.01,13.46,13.44M123.39,166.21c-2.26,1.72-5.08,2.73-8.13,2.73s-5.9-1.03-8.16-2.76M107.12,144.74c2.26-1.72,5.08-2.74,8.14-2.74s5.82,1,8.07,2.69M96.44,168.66c-.88.18-1.8.28-2.74.28-7.44,0-13.46-6.03-13.46-13.47s6.03-13.47,13.46-13.47c.93,0,1.84.1,2.72.28M96.5,166.19c-2.26,1.73-5.09,2.76-8.16,2.76-7.44,0-13.46-6.03-13.46-13.47v-.13M77.59,147.35c2.46-3.25,6.36-5.35,10.75-5.35,3.03,0,5.83,1,8.08,2.69M58.7,144.69c2.25-1.69,5.05-2.69,8.07-2.69,7.4,0,13.41,5.98,13.47,13.37M58.67,142.27c.88-.18,1.8-.28,2.73-.28,7.44,0,13.47,6.03,13.47,13.47M48.01,168.65c-.9.19-1.84.29-2.8.29-7.44,0-13.47-6.03-13.47-13.47s6.03-13.47,13.47-13.47c.98,0,1.93.1,2.85.3M47.94,166.25v-21.66M47.94,142.26v-27.21h10.73v53.89h-10.73v-.3M47.99,166.19c-2.26,1.72-5.09,2.75-8.15,2.75-7.44,0-13.46-6.03-13.46-13.47s6.03-13.47,13.46-13.47c3.07,0,5.9,1.03,8.17,2.76M187.86,133.93l5.39.03M209.46,144.75c-2.26,1.72-5.08,2.74-8.14,2.74-7.44,0-13.46-6.03-13.46-13.47v-.07M220.17,134.01c0,7.44-6.03,13.47-13.46,13.47s-13.46-6.03-13.46-13.47c0-.03,0-.07,0-.1M209.4,112.35v-21.62M209.4,144.79v-29.97M220.17,101.51v32.44M209.43,114.77c-.88.18-1.79.28-2.72.28-3.05,0-5.85-1.01-8.11-2.72M195.94,93.48c2.46-3.27,6.37-5.38,10.77-5.38,7.41,0,13.43,6,13.46,13.41M209.38,112.37c-2.25,1.68-5.04,2.68-8.06,2.68-.9,0-1.78-.09-2.63-.26M193.27,90.77c2.25-1.68,5.03-2.67,8.05-2.67s5.86,1.01,8.12,2.73M177.08,90.7v24.35h-10.77v-26.95h10.77v.27M160.97,115.05h-10.77v-26.95h10.77v26.95ZM198.63,101.54v13.51h-10.77v-24.25M177.06,90.81c2.25-1.7,5.06-2.71,8.11-2.71,7.44,0,13.46,6.03,13.46,13.47v.03M177.04,88.38c.88-.18,1.8-.28,2.74-.28,3.06,0,5.87,1.02,8.13,2.73M144.87,101.54v13.51h-10.77v-24.25M117.94,101.57c0-7.44,6.03-13.47,13.47-13.47s13.45,6.01,13.47,13.44M115.27,93.46c2.46-3.25,6.36-5.36,10.75-5.36,3.05,0,5.85,1.01,8.11,2.72M101.82,90.77c2.24-1.68,5.03-2.67,8.04-2.67,4.46,0,8.41,2.17,10.86,5.51M101.8,88.36c.86-.17,1.75-.26,2.67-.26,7.42,0,13.45,6.01,13.46,13.44M101.78,90.73v24.32h-10.77v-24.29M91.01,88.4v-.3h10.77v.23M74.85,101.61v-.03c0-7.44,6.03-13.47,13.46-13.47s13.47,6.03,13.47,13.47v.07M72.19,93.44c2.46-3.24,6.35-5.34,10.74-5.34,3.06,0,5.88,1.02,8.14,2.74M58.72,90.77c2.25-1.68,5.03-2.67,8.05-2.67,4.44,0,8.37,2.15,10.83,5.46M58.72,88.36c.86-.17,1.75-.26,2.67-.26,7.44,0,13.47,6.03,13.47,13.47v.07M47.92,112.25v-24.15h10.77v26.95h-10.77v-.37M58.69,101.57c0,7.44-6.03,13.47-13.47,13.47-3.03,0-5.82-1-8.07-2.69M47.99,112.3c-2.26,1.72-5.09,2.75-8.15,2.75-.91,0-1.8-.09-2.66-.26M31.79,90.77s.05-.04.08-.06M26.37,88.37v-.27h10.77v26.95h-10.77v-24.29M15.53,90.85c2.26-1.73,5.09-2.75,8.15-2.75,7.44,0,13.47,6.03,13.47,13.47M15.57,88.38c.88-.18,1.79-.28,2.72-.28,3.06,0,5.89,1.02,8.15,2.75M15.6,90.7v24.35H4.83v-53.9h10.77v27.28"
          fill="none" stroke="#fff" stroke-miterlimit="10" stroke-width="0.5"/>
  </g>

  <g clip-path="url(#c)">
    <path d="M98.41,21.52c30.5-1.45,57.47,24.3,57.31,54.96M95.04,14.8c32.02-3.6,60.83,22.4,60.68,54.69M155.72,78.35c-.05-30.19,27.91-55.51,57.56-54.61M155.72,71.16c-.03-31.91,30.83-58.14,62.14-54.26M155.72,61.99c-.01,6.11-.03,12.22-.04,18.33l.04,7.58M155.72,64.01c-.05-33.78,33.87-60.59,66.62-53.5M90.31,8.32c3.49-.7,7.11-1.07,10.81-1.07,30.15,0,54.6,24.51,54.6,54.75,0,.09,0,.18,0,.27"
          fill="none" stroke="#fff" stroke-miterlimit="10" stroke-width="0.7"/>
    <path d="M164.96,72.8c0,4.14-3.34,7.5-7.46,7.5s-7.46-3.36-7.46-7.5,3.34-7.5,7.46-7.5,7.46,3.36,7.46,7.5ZM161.4,72.8c0,4.14-3.34,7.5-7.46,7.5s-7.46-3.36-7.46-7.5,3.34-7.5,7.46-7.5,7.46,3.36,7.46,7.5Z"
          fill="none" stroke="#fff" stroke-miterlimit="10" stroke-width="0.5"/>
  </g>
</svg>